# xmcd
#
# Track frame offsets:
#	150
#	16911
#	38636
#	56304
#	73686
#	89474
#	102923
#	119754
#	135886
#	153385
#	170146
#	191871
#	209539
#	226921
#	242709
#	256158
#	272989
#	289121
#
# Disc length: 4088 seconds
#
# Revision: 2
# Processed by: cddbd v1.5.2PL0 Copyright (c) Steve Scherf et al.
# Submitted via: audiograbber 1.83.01
#
DISCID=040ff612
DTITLE=Various Artist - PHMC1207
DYEAR=2012
DGENRE=Karaoke
TTITLE0=Kip Moore - Somethin Bout A Truck
TTITLE1=Keith Urban - For You
TTITLE2=Lee Brice - Hard To Love
TTITLE3=Dierks Bentley - Breathe You In
TTITLE4=Carters Chord - Love A Little Bigger
TTITLE5=Montgomery Gentry - So Called Life
TTITLE6=Kip Moore - Hey Pretty Girl
TTITLE7=Lathan Moore - Nothin Like A Woman
TTITLE8=Lewis Copeland - She's Got It Going On
TTITLE9=Kip Moore - Somethin Bout A Truck (MPX)
TTITLE10=Keith Urban - For You (MPX)
TTITLE11=Lee Brice - Hard To Love (MPX)
TTITLE12=Dierks Bentley - Breathe You In (MPX)
TTITLE13=Carters Chord - Love A Little Bigger (MPX)
TTITLE14=Montgomery Gentry - So Called Life (MPX)
TTITLE15=Kip Moore - Hey Pretty Girl (MPX)
TTITLE16=Lathan Moore - Nothin Like A Woman (MPX)
TTITLE17=Lewis Copeland - She's Got It Going On (MPX)
EXTD=
EXTT0=
EXTT1=
EXTT2=
EXTT3=
EXTT4=
EXTT5=
EXTT6=
EXTT7=
EXTT8=
EXTT9=
EXTT10=
EXTT11=
EXTT12=
EXTT13=
EXTT14=
EXTT15=
EXTT16=
EXTT17=
PLAYORDER=
